<?xml version="1.0" encoding="UTF-8" standalone="no"?>
<!-- Created with Inkscape (http://www.inkscape.org/) -->

<svg
   width="100"
   height="100"
   viewBox="0 0 26.458333 26.458333"
   version="1.1"
   id="svg5"
   inkscape:version="1.2.1 (9c6d41e410, 2022-07-14)"
   sodipodi:docname="pieces.svg"
   xml:space="preserve"
   inkscape:export-filename="building.png"
   inkscape:export-xdpi="96"
   inkscape:export-ydpi="96"
   xmlns:inkscape="http://www.inkscape.org/namespaces/inkscape"
   xmlns:sodipodi="http://sodipodi.sourceforge.net/DTD/sodipodi-0.dtd"
   xmlns="http://www.w3.org/2000/svg"
   xmlns:svg="http://www.w3.org/2000/svg"><sodipodi:namedview
     id="namedview7"
     pagecolor="#ffffff"
     bordercolor="#666666"
     borderopacity="1.0"
     inkscape:showpageshadow="2"
     inkscape:pageopacity="0.0"
     inkscape:pagecheckerboard="true"
     inkscape:deskcolor="#d1d1d1"
     inkscape:document-units="px"
     showgrid="false"
     inkscape:zoom="7.319248"
     inkscape:cx="32.517002"
     inkscape:cy="32.517002"
     inkscape:window-width="2560"
     inkscape:window-height="1361"
     inkscape:window-x="2391"
     inkscape:window-y="-9"
     inkscape:window-maximized="1"
     inkscape:current-layer="layer4"
     showguides="true"><sodipodi:guide
       position="13.229166,15.541342"
       orientation="-1,0"
       id="guide461"
       inkscape:locked="false"
       inkscape:label=""
       inkscape:color="rgb(0,134,229)" /><sodipodi:guide
       position="8.8203505,13.229166"
       orientation="0,1"
       id="guide504"
       inkscape:locked="false"
       inkscape:label=""
       inkscape:color="rgb(0,134,229)" /></sodipodi:namedview><defs
     id="defs2"><linearGradient
       id="linearGradient2995"
       inkscape:swatch="solid"><stop
         style="stop-color:#2f7c6c;stop-opacity:1;"
         offset="0"
         id="stop2993" /></linearGradient><linearGradient
       id="linearGradient2973"
       inkscape:swatch="solid"><stop
         style="stop-color:#e15050;stop-opacity:1;"
         offset="0"
         id="stop2971" /></linearGradient><pattern
       patternUnits="userSpaceOnUse"
       width="9.9999998"
       height="19.999999"
       patternTransform="translate(45.502939,20.384545)"
       id="pattern3760"><rect
         style="fill:#000000;fill-opacity:1;fill-rule:nonzero;stroke:none;stroke-width:0.498898;stroke-linecap:square;stroke-dasharray:none;stroke-opacity:1"
         id="rect3756"
         width="10"
         height="10"
         x="0"
         y="0" /><rect
         style="fill:#dc0000;fill-opacity:1;fill-rule:nonzero;stroke:none;stroke-width:0.498898;stroke-linecap:square;stroke-dasharray:none;stroke-opacity:1"
         id="rect3758"
         width="10"
         height="10"
         x="0"
         y="9.999999" /></pattern><pattern
       patternUnits="userSpaceOnUse"
       width="9.9999998"
       height="19.999999"
       patternTransform="translate(45.502939,20.384545)"
       id="pattern3760-5"><rect
         style="fill:#000000;fill-opacity:1;fill-rule:nonzero;stroke:none;stroke-width:0.498898;stroke-linecap:square;stroke-dasharray:none;stroke-opacity:1"
         id="rect3756-0"
         width="10"
         height="10"
         x="0"
         y="0" /><rect
         style="fill:#dc0000;fill-opacity:1;fill-rule:nonzero;stroke:none;stroke-width:0.498898;stroke-linecap:square;stroke-dasharray:none;stroke-opacity:1"
         id="rect3758-0"
         width="10"
         height="10"
         x="0"
         y="9.999999" /></pattern><pattern
       patternUnits="userSpaceOnUse"
       width="9.9999998"
       height="19.999999"
       patternTransform="translate(45.502939,20.384545)"
       id="pattern3760-2"><rect
         style="fill:#000000;fill-opacity:1;fill-rule:nonzero;stroke:none;stroke-width:0.498898;stroke-linecap:square;stroke-dasharray:none;stroke-opacity:1"
         id="rect3756-1"
         width="10"
         height="10"
         x="0"
         y="0" /><rect
         style="fill:#dc0000;fill-opacity:1;fill-rule:nonzero;stroke:none;stroke-width:0.498898;stroke-linecap:square;stroke-dasharray:none;stroke-opacity:1"
         id="rect3758-05"
         width="10"
         height="10"
         x="0"
         y="9.999999" /></pattern></defs><g
     inkscape:label="Start,Finish,Straight"
     inkscape:groupmode="layer"
     id="layer1"
     style="display:none"><rect
       style="display:inline;fill:#d10101;fill-opacity:1;stroke:none;stroke-width:0.269517"
       width="5.2916665"
       height="26.458332"
       x="1.3229166"
       y="0"
       id="rect3764"
       ry="0" /><rect
       style="display:inline;fill:#d10101;fill-opacity:1;stroke:none;stroke-width:0.269517"
       width="5.2916665"
       height="26.458332"
       x="19.84375"
       y="0"
       id="rect3764-4"
       ry="0" /><rect
       style="display:none;fill:#d10101;fill-opacity:1;stroke:none;stroke-width:0.295241"
       width="21.166666"
       height="7.9375"
       x="2.6458335"
       y="-26.458332"
       id="rect3764-4-7"
       ry="0"
       transform="scale(1,-1)" /><rect
       style="display:none;fill:#d10101;fill-opacity:1;stroke:none;stroke-width:0.295241"
       width="21.166666"
       height="7.9375"
       x="2.6458342"
       y="-7.9812856"
       id="rect3764-4-7-5"
       ry="0"
       transform="scale(1,-1)" /><text
       xml:space="preserve"
       style="font-style:normal;font-variant:normal;font-weight:normal;font-stretch:normal;font-size:3.52778px;line-height:1.25;font-family:Arial;-inkscape-font-specification:'Arial, Normal';font-variant-ligatures:normal;font-variant-caps:normal;font-variant-numeric:normal;font-variant-east-asian:normal;display:none;stroke-width:0.127038"
       x="7.566287"
       y="14.491795"
       id="text14614"><tspan
         sodipodi:role="line"
         id="tspan14612"
         style="font-style:normal;font-variant:normal;font-weight:normal;font-stretch:normal;font-size:3.52778px;font-family:Arial;-inkscape-font-specification:'Arial, Normal';font-variant-ligatures:normal;font-variant-caps:normal;font-variant-numeric:normal;font-variant-east-asian:normal;stroke-width:0.127038"
         x="0"
         y="0">START</tspan></text><text
       xml:space="preserve"
       style="font-style:normal;font-variant:normal;font-weight:normal;font-stretch:normal;font-size:3.52778px;line-height:1.25;font-family:Arial;-inkscape-font-specification:'Arial, Normal';font-variant-ligatures:normal;font-variant-caps:normal;font-variant-numeric:normal;font-variant-east-asian:normal;display:none;stroke-width:0.127038"
       x="7.4448514"
       y="14.491794"
       id="text15440"><tspan
         sodipodi:role="line"
         id="tspan15438"
         style="font-style:normal;font-variant:normal;font-weight:normal;font-stretch:normal;font-size:3.52778px;font-family:Arial;-inkscape-font-specification:'Arial, Normal';font-variant-ligatures:normal;font-variant-caps:normal;font-variant-numeric:normal;font-variant-east-asian:normal;stroke-width:0.127038"
         x="0"
         y="0">FINISH</tspan></text><rect
       style="display:inline;fill:#d10101;fill-opacity:1;stroke:none;stroke-width:0.200022"
       width="21.166666"
       height="3.6432207"
       x="2.6458335"
       y="-26.458332"
       id="rect214"
       ry="0"
       transform="scale(1,-1)" /></g><g
     inkscape:groupmode="layer"
     id="layer3"
     inkscape:label="Curves"
     style="display:none"><path
       id="path15566"
       style="display:none;fill:#d10101;fill-opacity:1;fill-rule:nonzero;stroke:none;stroke-width:0.130246;stroke-linecap:square;stroke-dasharray:none;stroke-opacity:1"
       d="M 0,19.84375 A 6.614583,6.614583 0 0 0 -6.6145832,26.458333 6.614583,6.614583 0 0 0 0,33.072916 6.614583,6.614583 0 0 0 6.6145832,26.458333 6.614583,6.614583 0 0 0 0,19.84375 Z m 0,5.291666 a 1.3229166,1.3229166 0 0 1 0.03410644,5.17e-4 1.3229166,1.3229166 0 0 1 0.03410645,10e-4 1.3229166,1.3229166 0 0 1 0.03410644,0.0026 1.3229166,1.3229166 0 0 1 0.0335897,0.0031 1.3229166,1.3229166 0 0 1 0.0341064,0.0036 1.3229166,1.3229166 0 0 1 0.0335897,0.0047 1.3229166,1.3229166 0 0 1 0.0335897,0.0057 1.3229166,1.3229166 0 0 1 0.0335897,0.0067 1.3229166,1.3229166 0 0 1 0.0330729,0.0072 1.3229166,1.3229166 0 0 1 0.0330729,0.0083 1.3229166,1.3229166 0 0 1 0.0325562,0.0093 1.3229166,1.3229166 0 0 1 0.0330729,0.0098 1.3229166,1.3229166 0 0 1 0.0320394,0.01085 1.3229166,1.3229166 0 0 1 0.0320394,0.01188 1.3229166,1.3229166 0 0 1 0.0315226,0.0124 1.3229166,1.3229166 0 0 1 0.0315226,0.01292 1.3229166,1.3229166 0 0 1 0.0310059,0.01395 1.3229166,1.3229166 0 0 1 0.0310059,0.01499 1.3229166,1.3229166 0 0 1 0.0299723,0.0155 1.3229166,1.3229166 0 0 1 0.0299723,0.01654 1.3229166,1.3229166 0 0 1 0.0294556,0.01705 1.3229166,1.3229166 0 0 1 0.0289388,0.01809 1.3229166,1.3229166 0 0 1 0.028422,0.0186 1.3229166,1.3229166 0 0 1 0.0279053,0.01964 1.3229166,1.3229166 0 0 1 0.0279053,0.01964 1.3229166,1.3229166 0 0 1 0.0268717,0.02119 1.3229166,1.3229166 0 0 1 0.026355,0.02119 1.3229166,1.3229166 0 0 1 0.0258382,0.02222 1.3229166,1.3229166 0 0 1 0.0253215,0.02274 1.3229166,1.3229166 0 0 1 0.0248047,0.02377 1.3229166,1.3229166 0 0 1 0.0237712,0.02377 1.3229166,1.3229166 0 0 1 0.0237712,0.02481 1.3229166,1.3229166 0 0 1 0.0227376,0.02532 1.3229166,1.3229166 0 0 1 0.0222208,0.02584 1.3229166,1.3229166 0 0 1 0.021187,0.02635 1.3229166,1.3229166 0 0 1 0.021187,0.02687 1.3229166,1.3229166 0 0 1 0.019637,0.02791 1.3229166,1.3229166 0 0 1 0.019637,0.02791 1.3229166,1.3229166 0 0 1 0.018603,0.02842 1.3229166,1.3229166 0 0 1 0.018087,0.02894 1.3229166,1.3229166 0 0 1 0.017053,0.02945 1.3229166,1.3229166 0 0 1 0.016536,0.02997 1.3229166,1.3229166 0 0 1 0.015503,0.02997 1.3229166,1.3229166 0 0 1 0.014986,0.03101 1.3229166,1.3229166 0 0 1 0.013953,0.03101 1.3229166,1.3229166 0 0 1 0.012919,0.03152 1.3229166,1.3229166 0 0 1 0.012402,0.03152 1.3229166,1.3229166 0 0 1 0.011886,0.03204 1.3229166,1.3229166 0 0 1 0.010852,0.03204 1.3229166,1.3229166 0 0 1 0.00982,0.03307 1.3229166,1.3229166 0 0 1 0.0093,0.03256 1.3229166,1.3229166 0 0 1 0.00827,0.03307 1.3229166,1.3229166 0 0 1 0.00723,0.03307 1.3229166,1.3229166 0 0 1 0.00672,0.03359 1.3229166,1.3229166 0 0 1 0.00568,0.03359 1.3229166,1.3229166 0 0 1 0.00465,0.03359 1.3229166,1.3229166 0 0 1 0.00362,0.03411 1.3229166,1.3229166 0 0 1 0.0031,0.03359 1.3229166,1.3229166 0 0 1 0.00258,0.03411 1.3229166,1.3229166 0 0 1 0.00103,0.03411 1.3229166,1.3229166 0 0 1 5.167e-4,0.03411 1.3229166,1.3229166 0 0 1 -0.00362,0.0987 1.3229166,1.3229166 0 0 1 -0.011369,0.0987 1.3229166,1.3229166 0 0 1 -0.018087,0.09715 1.3229166,1.3229166 0 0 1 -0.025838,0.0956 1.3229166,1.3229166 0 0 1 -0.032556,0.09302 1.3229166,1.3229166 0 0 1 -0.039791,0.09095 1.3229166,1.3229166 0 0 1 -0.045992,0.08733 1.3229166,1.3229166 0 0 1 -0.05271,0.08372 1.3229166,1.3229166 0 0 1 -0.058911,0.07958 1.3229166,1.3229166 0 0 1 -0.0640788,0.07493 1.3229166,1.3229166 0 0 1 -0.0702799,0.07028 1.3229166,1.3229166 0 0 1 -0.0749308,0.06408 1.3229166,1.3229166 0 0 1 -0.0795817,0.05891 1.3229166,1.3229166 0 0 1 -0.0837158,0.05271 1.3229166,1.3229166 0 0 1 -0.0873332,0.04599 1.3229166,1.3229166 0 0 1 -0.0909505,0.03979 1.3229166,1.3229166 0 0 1 -0.0930176,0.03256 1.3229166,1.3229166 0 0 1 -0.0956014,0.02584 1.3229166,1.3229166 0 0 1 -0.0971517,0.01809 1.3229166,1.3229166 0 0 1 -0.09870199,0.01137 A 1.3229166,1.3229166 0 0 1 0,27.78125 a 1.3229166,1.3229166 0 0 1 -0.09870198,-0.0036 1.3229166,1.3229166 0 0 1 -0.09870199,-0.01137 1.3229166,1.3229166 0 0 1 -0.0971517,-0.01809 1.3229166,1.3229166 0 0 1 -0.0956014,-0.02584 1.3229166,1.3229166 0 0 1 -0.0930176,-0.03256 1.3229166,1.3229166 0 0 1 -0.0909505,-0.03979 1.3229166,1.3229166 0 0 1 -0.0873332,-0.04599 1.3229166,1.3229166 0 0 1 -0.0837158,-0.05271 1.3229166,1.3229166 0 0 1 -0.0795817,-0.05891 1.3229166,1.3229166 0 0 1 -0.0749308,-0.06408 1.3229166,1.3229166 0 0 1 -0.0702799,-0.07028 1.3229166,1.3229166 0 0 1 -0.0640788,-0.07493 1.3229166,1.3229166 0 0 1 -0.058911,-0.07958 1.3229166,1.3229166 0 0 1 -0.05271,-0.08372 1.3229166,1.3229166 0 0 1 -0.045992,-0.08733 1.3229166,1.3229166 0 0 1 -0.039791,-0.09095 1.3229166,1.3229166 0 0 1 -0.032556,-0.09302 1.3229166,1.3229166 0 0 1 -0.025838,-0.0956 1.3229166,1.3229166 0 0 1 -0.018087,-0.09715 1.3229166,1.3229166 0 0 1 -0.011369,-0.0987 1.3229166,1.3229166 0 0 1 -0.00362,-0.0987 1.3229166,1.3229166 0 0 1 0.00362,-0.0987 1.3229166,1.3229166 0 0 1 0.011369,-0.0987 1.3229166,1.3229166 0 0 1 0.018087,-0.09715 1.3229166,1.3229166 0 0 1 0.025838,-0.0956 1.3229166,1.3229166 0 0 1 0.032556,-0.09302 1.3229166,1.3229166 0 0 1 0.039791,-0.09095 1.3229166,1.3229166 0 0 1 0.045992,-0.08733 1.3229166,1.3229166 0 0 1 0.05271,-0.08372 1.3229166,1.3229166 0 0 1 0.058911,-0.07958 1.3229166,1.3229166 0 0 1 0.0640788,-0.07493 1.3229166,1.3229166 0 0 1 0.0702799,-0.07028 1.3229166,1.3229166 0 0 1 0.0749308,-0.06408 1.3229166,1.3229166 0 0 1 0.0795817,-0.05891 1.3229166,1.3229166 0 0 1 0.0837158,-0.05271 1.3229166,1.3229166 0 0 1 0.0873332,-0.04599 1.3229166,1.3229166 0 0 1 0.0909505,-0.03979 1.3229166,1.3229166 0 0 1 0.0930176,-0.03256 1.3229166,1.3229166 0 0 1 0.0956014,-0.02584 1.3229166,1.3229166 0 0 1 0.0971517,-0.01809 1.3229166,1.3229166 0 0 1 0.09870199,-0.01137 A 1.3229166,1.3229166 0 0 1 0,25.135416 Z M 0,1.3229166 A 25.135416,25.135416 0 0 0 -25.135416,26.458333 25.135416,25.135416 0 0 0 0,51.593749 25.135416,25.135416 0 0 0 25.135416,26.458333 25.135416,25.135416 0 0 0 0,1.3229166 Z m 0,5.2916666 a 19.84375,19.84375 0 0 1 0.56689046,0.00827 19.84375,19.84375 0 0 1 0.56585694,0.024288 19.84375,19.84375 0 0 1 0.5653401,0.040308 19.84375,19.84375 0 0 1 0.5637899,0.056327 19.84375,19.84375 0 0 1 0.5622396,0.072864 19.84375,19.84375 0 0 1 0.5596557,0.088367 19.84375,19.84375 0 0 1 0.557072,0.1049032 19.84375,19.84375 0 0 1 0.5534546,0.120406 19.84375,19.84375 0 0 1 0.550354,0.1364258 19.84375,19.84375 0 0 1 0.5462198,0.151412 19.84375,19.84375 0 0 1 0.5410523,0.1674316 19.84375,19.84375 0 0 1 0.5364013,0.1829346 19.84375,19.84375 0 0 1 0.5312338,0.1979207 19.84375,19.84375 0 0 1 0.5250325,0.2134237 19.84375,19.84375 0 0 1 0.5188314,0.227893 19.84375,19.84375 0 0 1 0.5121134,0.2428793 19.84375,19.84375 0 0 1 0.5048787,0.2573486 19.84375,19.84375 0 0 1 0.4976441,0.2713013 19.84375,19.84375 0 0 1 0.4893754,0.2857706 19.84375,19.84375 0 0 1 0.481108,0.2997233 19.84375,19.84375 0 0 1 0.472323,0.3131591 19.84375,19.84375 0 0 1 0.46302,0.326595 19.84375,19.84375 0 0 1 0.453719,0.339514 19.84375,19.84375 0 0 1 0.443901,0.352433 19.84375,19.84375 0 0 1 0.433565,0.364836 19.84375,19.84375 0 0 1 0.422713,0.377238 19.84375,19.84375 0 0 1 0.411862,0.389123 19.84375,19.84375 0 0 1 0.401009,0.401009 19.84375,19.84375 0 0 1 0.389123,0.411862 19.84375,19.84375 0 0 1 0.377238,0.422713 19.84375,19.84375 0 0 1 0.364836,0.433565 19.84375,19.84375 0 0 1 0.352433,0.443901 19.84375,19.84375 0 0 1 0.339514,0.453719 19.84375,19.84375 0 0 1 0.326595,0.46302 19.84375,19.84375 0 0 1 0.313159,0.472323 19.84375,19.84375 0 0 1 0.299724,0.481108 19.84375,19.84375 0 0 1 0.28577,0.489375 19.84375,19.84375 0 0 1 0.271302,0.497644 19.84375,19.84375 0 0 1 0.257348,0.504879 19.84375,19.84375 0 0 1 0.24288,0.512114 19.84375,19.84375 0 0 1 0.227893,0.518831 19.84375,19.84375 0 0 1 0.213423,0.525033 19.84375,19.84375 0 0 1 0.197921,0.531233 19.84375,19.84375 0 0 1 0.182935,0.536402 19.84375,19.84375 0 0 1 0.167431,0.541052 19.84375,19.84375 0 0 1 0.151412,0.54622 19.84375,19.84375 0 0 1 0.136426,0.550354 19.84375,19.84375 0 0 1 0.120406,0.553454 19.84375,19.84375 0 0 1 0.104903,0.557072 19.84375,19.84375 0 0 1 0.08837,0.559656 19.84375,19.84375 0 0 1 0.07286,0.56224 19.84375,19.84375 0 0 1 0.05633,0.563789 19.84375,19.84375 0 0 1 0.04031,0.565341 19.84375,19.84375 0 0 1 0.02429,0.565857 19.84375,19.84375 0 0 1 0.0083,0.56689 19.84375,19.84375 0 0 1 -0.0677,1.63866 19.84375,19.84375 0 0 1 -0.203089,1.62729 19.84375,19.84375 0 0 1 -0.336413,1.605587 19.84375,19.84375 0 0 1 -0.468189,1.57148 19.84375,19.84375 0 0 1 -0.595829,1.528073 19.84375,19.84375 0 0 1 -0.72037,1.473295 19.84375,19.84375 0 0 1 -0.839742,1.409216 19.84375,19.84375 0 0 1 -0.952913,1.334802 19.84375,19.84375 0 0 1 -1.059884,1.251603 19.84375,19.84375 0 0 1 -1.159619,1.159619 19.84375,19.84375 0 0 1 -1.251603,1.059884 19.84375,19.84375 0 0 1 -1.334802,0.952913 19.84375,19.84375 0 0 1 -1.4092164,0.839742 19.84375,19.84375 0 0 1 -1.473295,0.72037 A 19.84375,19.84375 0 0 1 6.4430175,45.226696 19.84375,19.84375 0 0 1 4.8715372,45.694885 19.84375,19.84375 0 0 1 3.2659505,46.031298 19.84375,19.84375 0 0 1 1.6386596,46.234387 19.84375,19.84375 0 0 1 0,46.302083 a 19.84375,19.84375 0 0 1 -1.6386596,-0.0677 19.84375,19.84375 0 0 1 -1.6272909,-0.203089 19.84375,19.84375 0 0 1 -1.6055867,-0.336413 19.84375,19.84375 0 0 1 -1.5714803,-0.468189 19.84375,19.84375 0 0 1 -1.5280721,-0.595829 19.84375,19.84375 0 0 1 -1.473295,-0.72037 19.84375,19.84375 0 0 1 -1.4092164,-0.839742 19.84375,19.84375 0 0 1 -1.334802,-0.952913 19.84375,19.84375 0 0 1 -1.251603,-1.059884 19.84375,19.84375 0 0 1 -1.159619,-1.159619 19.84375,19.84375 0 0 1 -1.059884,-1.251603 19.84375,19.84375 0 0 1 -0.952913,-1.334802 19.84375,19.84375 0 0 1 -0.839742,-1.409216 19.84375,19.84375 0 0 1 -0.72037,-1.473295 19.84375,19.84375 0 0 1 -0.595829,-1.528073 19.84375,19.84375 0 0 1 -0.468189,-1.57148 19.84375,19.84375 0 0 1 -0.336413,-1.605587 19.84375,19.84375 0 0 1 -0.203089,-1.62729 19.84375,19.84375 0 0 1 -0.0677,-1.63866 19.84375,19.84375 0 0 1 0.0677,-1.63866 19.84375,19.84375 0 0 1 0.203089,-1.62729 19.84375,19.84375 0 0 1 0.336413,-1.605587 19.84375,19.84375 0 0 1 0.468189,-1.57148 19.84375,19.84375 0 0 1 0.595829,-1.528073 19.84375,19.84375 0 0 1 0.72037,-1.473295 19.84375,19.84375 0 0 1 0.839742,-1.409216 19.84375,19.84375 0 0 1 0.952913,-1.334802 19.84375,19.84375 0 0 1 1.059884,-1.251603 19.84375,19.84375 0 0 1 1.159619,-1.159619 19.84375,19.84375 0 0 1 1.251603,-1.059884 19.84375,19.84375 0 0 1 1.334802,-0.9529135 19.84375,19.84375 0 0 1 1.4092164,-0.839742 A 19.84375,19.84375 0 0 1 -7.9710896,8.285799 19.84375,19.84375 0 0 1 -6.4430175,7.6899698 19.84375,19.84375 0 0 1 -4.8715372,7.2217813 19.84375,19.84375 0 0 1 -3.2659505,6.8853678 19.84375,19.84375 0 0 1 -1.6386596,6.6822794 19.84375,19.84375 0 0 1 0,6.6145832 Z" /><path
       id="path15598"
       style="display:inline;fill:#d10101;fill-opacity:1;fill-rule:nonzero;stroke:none;stroke-width:0.130246;stroke-linecap:square;stroke-dasharray:none;stroke-opacity:1"
       d="m 26.458333,19.84375 a 6.614583,6.614583 0 0 0 -6.614583,6.614583 6.614583,6.614583 0 0 0 6.614583,6.614583 6.614583,6.614583 0 0 0 6.614583,-6.614583 6.614583,6.614583 0 0 0 -6.614583,-6.614583 z m 0,5.291666 a 1.3229166,1.3229166 0 0 1 0.03411,5.17e-4 1.3229166,1.3229166 0 0 1 0.03411,10e-4 1.3229166,1.3229166 0 0 1 0.03411,0.0026 1.3229166,1.3229166 0 0 1 0.03359,0.0031 1.3229166,1.3229166 0 0 1 0.03411,0.0036 1.3229166,1.3229166 0 0 1 0.03359,0.0047 1.3229166,1.3229166 0 0 1 0.03359,0.0057 1.3229166,1.3229166 0 0 1 0.03359,0.0067 1.3229166,1.3229166 0 0 1 0.03307,0.0072 1.3229166,1.3229166 0 0 1 0.03307,0.0083 1.3229166,1.3229166 0 0 1 0.03256,0.0093 1.3229166,1.3229166 0 0 1 0.03307,0.0098 1.3229166,1.3229166 0 0 1 0.03204,0.01085 1.3229166,1.3229166 0 0 1 0.03204,0.01188 1.3229166,1.3229166 0 0 1 0.03152,0.0124 1.3229166,1.3229166 0 0 1 0.03152,0.01292 1.3229166,1.3229166 0 0 1 0.03101,0.01395 1.3229166,1.3229166 0 0 1 0.03101,0.01499 1.3229166,1.3229166 0 0 1 0.02997,0.0155 1.3229166,1.3229166 0 0 1 0.02997,0.01654 1.3229166,1.3229166 0 0 1 0.02945,0.01705 1.3229166,1.3229166 0 0 1 0.02894,0.01809 1.3229166,1.3229166 0 0 1 0.02842,0.0186 1.3229166,1.3229166 0 0 1 0.02791,0.01964 1.3229166,1.3229166 0 0 1 0.02791,0.01964 1.3229166,1.3229166 0 0 1 0.02687,0.02119 1.3229166,1.3229166 0 0 1 0.02636,0.02119 1.3229166,1.3229166 0 0 1 0.02584,0.02222 1.3229166,1.3229166 0 0 1 0.02532,0.02274 1.3229166,1.3229166 0 0 1 0.02481,0.02377 1.3229166,1.3229166 0 0 1 0.02377,0.02377 1.3229166,1.3229166 0 0 1 0.02377,0.02481 1.3229166,1.3229166 0 0 1 0.02274,0.02532 1.3229166,1.3229166 0 0 1 0.02222,0.02584 1.3229166,1.3229166 0 0 1 0.02119,0.02635 1.3229166,1.3229166 0 0 1 0.02119,0.02687 1.3229166,1.3229166 0 0 1 0.01964,0.02791 1.3229166,1.3229166 0 0 1 0.01964,0.02791 1.3229166,1.3229166 0 0 1 0.0186,0.02842 1.3229166,1.3229166 0 0 1 0.01809,0.02894 1.3229166,1.3229166 0 0 1 0.01705,0.02945 1.3229166,1.3229166 0 0 1 0.01654,0.02997 1.3229166,1.3229166 0 0 1 0.0155,0.02997 1.3229166,1.3229166 0 0 1 0.01499,0.03101 1.3229166,1.3229166 0 0 1 0.01395,0.03101 1.3229166,1.3229166 0 0 1 0.01292,0.03152 1.3229166,1.3229166 0 0 1 0.0124,0.03152 1.3229166,1.3229166 0 0 1 0.01189,0.03204 1.3229166,1.3229166 0 0 1 0.01085,0.03204 1.3229166,1.3229166 0 0 1 0.0098,0.03307 1.3229166,1.3229166 0 0 1 0.0093,0.03256 1.3229166,1.3229166 0 0 1 0.0083,0.03307 1.3229166,1.3229166 0 0 1 0.0072,0.03307 1.3229166,1.3229166 0 0 1 0.0067,0.03359 1.3229166,1.3229166 0 0 1 0.0057,0.03359 1.3229166,1.3229166 0 0 1 0.0046,0.03359 1.3229166,1.3229166 0 0 1 0.0036,0.03411 1.3229166,1.3229166 0 0 1 0.0031,0.03359 1.3229166,1.3229166 0 0 1 0.0026,0.03411 1.3229166,1.3229166 0 0 1 0.001,0.03411 1.3229166,1.3229166 0 0 1 5.16e-4,0.03411 1.3229166,1.3229166 0 0 1 -0.0036,0.0987 1.3229166,1.3229166 0 0 1 -0.01137,0.0987 1.3229166,1.3229166 0 0 1 -0.01809,0.09715 1.3229166,1.3229166 0 0 1 -0.02584,0.0956 1.3229166,1.3229166 0 0 1 -0.03256,0.09302 1.3229166,1.3229166 0 0 1 -0.03979,0.09095 1.3229166,1.3229166 0 0 1 -0.04599,0.08733 1.3229166,1.3229166 0 0 1 -0.05271,0.08372 1.3229166,1.3229166 0 0 1 -0.05891,0.07958 1.3229166,1.3229166 0 0 1 -0.06408,0.07493 1.3229166,1.3229166 0 0 1 -0.07028,0.07028 1.3229166,1.3229166 0 0 1 -0.07493,0.06408 1.3229166,1.3229166 0 0 1 -0.07958,0.05891 1.3229166,1.3229166 0 0 1 -0.08372,0.05271 1.3229166,1.3229166 0 0 1 -0.08733,0.04599 1.3229166,1.3229166 0 0 1 -0.09095,0.03979 1.3229166,1.3229166 0 0 1 -0.09302,0.03256 1.3229166,1.3229166 0 0 1 -0.0956,0.02584 1.3229166,1.3229166 0 0 1 -0.09715,0.01809 1.3229166,1.3229166 0 0 1 -0.0987,0.01137 1.3229166,1.3229166 0 0 1 -0.09869,0.0036 1.3229166,1.3229166 0 0 1 -0.0987,-0.0036 1.3229166,1.3229166 0 0 1 -0.0987,-0.01137 1.3229166,1.3229166 0 0 1 -0.09715,-0.01809 1.3229166,1.3229166 0 0 1 -0.0956,-0.02584 1.3229166,1.3229166 0 0 1 -0.09302,-0.03256 1.3229166,1.3229166 0 0 1 -0.09095,-0.03979 1.3229166,1.3229166 0 0 1 -0.08733,-0.04599 1.3229166,1.3229166 0 0 1 -0.08372,-0.05271 1.3229166,1.3229166 0 0 1 -0.07958,-0.05891 1.3229166,1.3229166 0 0 1 -0.07493,-0.06408 1.3229166,1.3229166 0 0 1 -0.07028,-0.07028 1.3229166,1.3229166 0 0 1 -0.06408,-0.07493 1.3229166,1.3229166 0 0 1 -0.05891,-0.07958 1.3229166,1.3229166 0 0 1 -0.05271,-0.08372 1.3229166,1.3229166 0 0 1 -0.04599,-0.08733 1.3229166,1.3229166 0 0 1 -0.03979,-0.09095 1.3229166,1.3229166 0 0 1 -0.03256,-0.09302 1.3229166,1.3229166 0 0 1 -0.02584,-0.0956 1.3229166,1.3229166 0 0 1 -0.01809,-0.09715 1.3229166,1.3229166 0 0 1 -0.01137,-0.0987 1.3229166,1.3229166 0 0 1 -0.0036,-0.0987 1.3229166,1.3229166 0 0 1 0.0036,-0.0987 1.3229166,1.3229166 0 0 1 0.01137,-0.0987 1.3229166,1.3229166 0 0 1 0.01809,-0.09715 1.3229166,1.3229166 0 0 1 0.02584,-0.0956 1.3229166,1.3229166 0 0 1 0.03256,-0.09302 1.3229166,1.3229166 0 0 1 0.03979,-0.09095 1.3229166,1.3229166 0 0 1 0.04599,-0.08733 1.3229166,1.3229166 0 0 1 0.05271,-0.08372 1.3229166,1.3229166 0 0 1 0.05891,-0.07958 1.3229166,1.3229166 0 0 1 0.06408,-0.07493 1.3229166,1.3229166 0 0 1 0.07028,-0.07028 1.3229166,1.3229166 0 0 1 0.07493,-0.06408 1.3229166,1.3229166 0 0 1 0.07958,-0.05891 1.3229166,1.3229166 0 0 1 0.08372,-0.05271 1.3229166,1.3229166 0 0 1 0.08733,-0.04599 1.3229166,1.3229166 0 0 1 0.09095,-0.03979 1.3229166,1.3229166 0 0 1 0.09302,-0.03256 1.3229166,1.3229166 0 0 1 0.0956,-0.02584 1.3229166,1.3229166 0 0 1 0.09715,-0.01809 1.3229166,1.3229166 0 0 1 0.0987,-0.01137 1.3229166,1.3229166 0 0 1 0.0987,-0.0036 z m 0,-23.8124992 A 25.135416,25.135416 0 0 0 1.322917,26.458333 25.135416,25.135416 0 0 0 26.458333,51.593749 25.135416,25.135416 0 0 0 51.593749,26.458333 25.135416,25.135416 0 0 0 26.458333,1.3229168 Z m 0,5.2916666 a 19.84375,19.84375 0 0 1 0.56689,0.00827 19.84375,19.84375 0 0 1 0.565857,0.024288 19.84375,19.84375 0 0 1 0.56534,0.040308 19.84375,19.84375 0 0 1 0.56379,0.056327 19.84375,19.84375 0 0 1 0.56224,0.072864 19.84375,19.84375 0 0 1 0.559656,0.088367 19.84375,19.84375 0 0 1 0.557072,0.1049032 19.84375,19.84375 0 0 1 0.553454,0.120406 19.84375,19.84375 0 0 1 0.550354,0.1364258 19.84375,19.84375 0 0 1 0.54622,0.151412 19.84375,19.84375 0 0 1 0.541052,0.1674316 19.84375,19.84375 0 0 1 0.536402,0.1829346 19.84375,19.84375 0 0 1 0.531233,0.1979207 19.84375,19.84375 0 0 1 0.525033,0.2134237 19.84375,19.84375 0 0 1 0.518831,0.227893 19.84375,19.84375 0 0 1 0.512114,0.2428793 19.84375,19.84375 0 0 1 0.504878,0.2573486 19.84375,19.84375 0 0 1 0.497645,0.2713013 19.84375,19.84375 0 0 1 0.489375,0.2857706 19.84375,19.84375 0 0 1 0.481108,0.2997233 19.84375,19.84375 0 0 1 0.472323,0.3131589 19.84375,19.84375 0 0 1 0.46302,0.326595 19.84375,19.84375 0 0 1 0.453719,0.339514 19.84375,19.84375 0 0 1 0.443901,0.352433 19.84375,19.84375 0 0 1 0.433565,0.364836 19.84375,19.84375 0 0 1 0.422713,0.377238 19.84375,19.84375 0 0 1 0.411862,0.389123 19.84375,19.84375 0 0 1 0.401009,0.401009 19.84375,19.84375 0 0 1 0.389123,0.411862 19.84375,19.84375 0 0 1 0.377238,0.422713 19.84375,19.84375 0 0 1 0.364836,0.433565 19.84375,19.84375 0 0 1 0.352433,0.443901 19.84375,19.84375 0 0 1 0.339514,0.453719 19.84375,19.84375 0 0 1 0.326595,0.46302 19.84375,19.84375 0 0 1 0.313159,0.472323 19.84375,19.84375 0 0 1 0.299724,0.481108 19.84375,19.84375 0 0 1 0.28577,0.489375 19.84375,19.84375 0 0 1 0.271302,0.497644 19.84375,19.84375 0 0 1 0.257348,0.504879 19.84375,19.84375 0 0 1 0.24288,0.512114 19.84375,19.84375 0 0 1 0.227893,0.518831 19.84375,19.84375 0 0 1 0.213423,0.525033 19.84375,19.84375 0 0 1 0.197921,0.531233 19.84375,19.84375 0 0 1 0.182935,0.536402 19.84375,19.84375 0 0 1 0.167431,0.541052 19.84375,19.84375 0 0 1 0.151412,0.54622 19.84375,19.84375 0 0 1 0.136426,0.550354 19.84375,19.84375 0 0 1 0.120406,0.553454 19.84375,19.84375 0 0 1 0.104903,0.557072 19.84375,19.84375 0 0 1 0.08837,0.559656 19.84375,19.84375 0 0 1 0.07286,0.56224 19.84375,19.84375 0 0 1 0.05633,0.563789 19.84375,19.84375 0 0 1 0.04031,0.565341 19.84375,19.84375 0 0 1 0.02429,0.565857 19.84375,19.84375 0 0 1 0.0083,0.56689 19.84375,19.84375 0 0 1 -0.0677,1.63866 19.84375,19.84375 0 0 1 -0.203089,1.62729 19.84375,19.84375 0 0 1 -0.336413,1.605587 19.84375,19.84375 0 0 1 -0.468189,1.57148 19.84375,19.84375 0 0 1 -0.595829,1.528073 19.84375,19.84375 0 0 1 -0.72037,1.473295 19.84375,19.84375 0 0 1 -0.839742,1.409216 19.84375,19.84375 0 0 1 -0.952913,1.334802 19.84375,19.84375 0 0 1 -1.059884,1.251603 19.84375,19.84375 0 0 1 -1.159619,1.159619 19.84375,19.84375 0 0 1 -1.251603,1.059884 19.84375,19.84375 0 0 1 -1.334802,0.952913 19.84375,19.84375 0 0 1 -1.409216,0.839742 19.84375,19.84375 0 0 1 -1.473295,0.72037 19.84375,19.84375 0 0 1 -1.528107,0.595827 19.84375,19.84375 0 0 1 -1.57148,0.468189 19.84375,19.84375 0 0 1 -1.605587,0.336413 19.84375,19.84375 0 0 1 -1.62729,0.203089 19.84375,19.84375 0 0 1 -1.63866,0.0677 19.84375,19.84375 0 0 1 -1.63866,-0.0677 19.84375,19.84375 0 0 1 -1.627291,-0.203089 19.84375,19.84375 0 0 1 -1.605586,-0.336413 19.84375,19.84375 0 0 1 -1.571481,-0.468189 19.84375,19.84375 0 0 1 -1.528072,-0.595829 19.84375,19.84375 0 0 1 -1.473295,-0.72037 A 19.84375,19.84375 0 0 1 15.604732,43.070751 19.84375,19.84375 0 0 1 14.26993,42.117838 19.84375,19.84375 0 0 1 13.018327,41.057954 19.84375,19.84375 0 0 1 11.858708,39.898335 19.84375,19.84375 0 0 1 10.798824,38.646732 19.84375,19.84375 0 0 1 9.845911,37.31193 19.84375,19.84375 0 0 1 9.006169,35.902714 19.84375,19.84375 0 0 1 8.285799,34.429419 19.84375,19.84375 0 0 1 7.68997,32.901346 19.84375,19.84375 0 0 1 7.221781,31.329866 19.84375,19.84375 0 0 1 6.885368,29.724279 a 19.84375,19.84375 0 0 1 -0.203089,-1.62729 19.84375,19.84375 0 0 1 -0.0677,-1.63866 19.84375,19.84375 0 0 1 0.0677,-1.63866 19.84375,19.84375 0 0 1 0.203089,-1.62729 19.84375,19.84375 0 0 1 0.336413,-1.605587 19.84375,19.84375 0 0 1 0.468189,-1.57148 19.84375,19.84375 0 0 1 0.595829,-1.528073 19.84375,19.84375 0 0 1 0.72037,-1.473295 19.84375,19.84375 0 0 1 0.839742,-1.409216 19.84375,19.84375 0 0 1 0.952913,-1.334802 19.84375,19.84375 0 0 1 1.059884,-1.251603 19.84375,19.84375 0 0 1 1.159619,-1.159619 19.84375,19.84375 0 0 1 1.251603,-1.059884 19.84375,19.84375 0 0 1 1.334802,-0.9529133 19.84375,19.84375 0 0 1 1.409216,-0.839742 19.84375,19.84375 0 0 1 1.473295,-0.7203655 19.84375,19.84375 0 0 1 1.528072,-0.5958292 19.84375,19.84375 0 0 1 1.571481,-0.4681885 19.84375,19.84375 0 0 1 1.605586,-0.3364135 19.84375,19.84375 0 0 1 1.627291,-0.2030884 19.84375,19.84375 0 0 1 1.63866,-0.067696 z" /></g><g
     inkscape:groupmode="layer"
     id="layer2"
     inkscape:label="T-Section"
     style="display:none"><path
       id="rect261"
       style="display:inline;fill:#d10101;fill-opacity:1;stroke:none;stroke-width:0.134759"
       d="m 19.84375,0 v 1.3229166 c 0,3.2853984 2.503647,5.2916666 5.291666,5.2916666 h 1.322917 V 1.3229166 H 25.135416 V 0 Z"
       sodipodi:nodetypes="cccccccc" /><rect
       style="display:inline;fill:#d10101;fill-opacity:1;stroke:none;stroke-width:0.269517"
       width="5.2916665"
       height="26.458332"
       x="-25.135416"
       y="5.364418e-07"
       id="rect265"
       ry="0"
       transform="rotate(-90)" /><path
       id="path459"
       style="display:inline;fill:#d10101;fill-opacity:1;stroke:none;stroke-width:0.134759"
       d="m 6.6145831,0 v 1.3229166 c 0,3.2853984 -2.503647,5.2916666 -5.291666,5.2916666 H 1e-7 V 1.3229166 h 1.322917 V 0 Z"
       sodipodi:nodetypes="cccccccc"
       inkscape:transform-center-x="9.9771177"
       inkscape:transform-center-y="-10.111255" /></g><g
     inkscape:groupmode="layer"
     id="g502"
     inkscape:label="4-Section"
     style="display:none"><path
       id="path496"
       style="display:inline;fill:#d10101;fill-opacity:1;stroke:none;stroke-width:0.134759"
       d="m 19.84375,0 v 1.3229166 c 0,3.2853984 2.503647,5.2916666 5.291666,5.2916666 h 1.322917 V 1.3229166 H 25.135416 V 0 Z"
       sodipodi:nodetypes="cccccccc" /><path
       id="path500"
       style="display:inline;fill:#d10101;fill-opacity:1;stroke:none;stroke-width:0.134759"
       d="m 6.6145831,0 v 1.3229166 c 0,3.2853984 -2.503647,5.2916666 -5.291666,5.2916666 H 1e-7 V 1.3229166 h 1.322917 V 0 Z"
       sodipodi:nodetypes="cccccccc"
       inkscape:transform-center-x="9.9771177"
       inkscape:transform-center-y="-10.111255" /><path
       id="path506"
       style="display:inline;fill:#d10101;fill-opacity:1;stroke:none;stroke-width:0.134759"
       d="m 19.84375,26.458334 v -1.322917 c 0,-3.285398 2.503647,-5.291666 5.291666,-5.291666 h 1.322917 v 5.291666 h -1.322917 v 1.322917 z"
       sodipodi:nodetypes="cccccccc"
       inkscape:transform-center-x="-9.9218755"
       inkscape:transform-center-y="9.9218755" /><path
       id="path508"
       style="display:inline;fill:#d10101;fill-opacity:1;stroke:none;stroke-width:0.134759"
       d="m 6.6145831,26.458334 v -1.322917 c 0,-3.285398 -2.503647,-5.291666 -5.291666,-5.291666 H 1e-7 v 5.291666 h 1.322917 v 1.322917 z"
       sodipodi:nodetypes="cccccccc"
       inkscape:transform-center-x="9.9218744"
       inkscape:transform-center-y="9.9218755" /></g><g
     inkscape:groupmode="layer"
     id="layer4"
     inkscape:label="House"><rect
       style="display:inline;fill:#008000;fill-opacity:1;stroke:none;stroke-width:0.602658"
       width="26.458334"
       height="26.458332"
       x="0"
       y="0"
       id="rect3764-0"
       rx="2.6458333"
       ry="2.6458333" /></g></svg>
